<svg width="80" height="80" viewBox="0 0 80 80" fill="none" xmlns="http://www.w3.org/2000/svg">
<circle cx="40" cy="40" r="40" fill="#082E52"/>
<path d="M51.2188 26.7188H57.3438V32.8438H51.2188V26.7188ZM51.2188 35.9062H57.3438V42.0312H51.2188V35.9062ZM42.0312 26.7188H48.1562V32.8438H42.0312V26.7188ZM42.0312 35.9062H48.1562V42.0312H42.0312V35.9062Z" fill="white"/>
<path d="M38.2031 55.8125C39.4717 55.8125 40.5 54.7842 40.5 53.5156C40.5 52.2471 39.4717 51.2188 38.2031 51.2188C36.9346 51.2188 35.9062 52.2471 35.9062 53.5156C35.9062 54.7842 36.9346 55.8125 38.2031 55.8125Z" fill="white"/>
<path d="M48.1562 61.9375H28.25C27.438 61.9367 26.6595 61.6138 26.0854 61.0396C25.5112 60.4655 25.1883 59.687 25.1875 58.875V22.125C25.1883 21.313 25.5112 20.5345 26.0854 19.9604C26.6595 19.3862 27.438 19.0633 28.25 19.0625H48.1562V22.125H28.25V58.875H48.1562V46.625H51.2188V58.875C51.2179 59.687 50.895 60.4655 50.3209 61.0396C49.7467 61.6138 48.9682 61.9367 48.1562 61.9375Z" fill="white"/>
</svg>
