<svg width="1781" height="291" viewBox="0 0 1781 291" fill="none" xmlns="http://www.w3.org/2000/svg">
<g clip-path="url(#clip0_1132_292)">
<rect width="1781" height="291" fill="white"/>
<rect width="1781" height="291" fill="#DFF8FF"/>
<path opacity="0.6" d="M256 277.561C299.63 277.561 335 271.964 335 265.06C335 258.155 299.63 252.559 256 252.559C212.37 252.559 177 258.155 177 265.06C177 271.964 212.37 277.561 256 277.561Z" fill="#C5E8EF"/>
<path d="M240.32 204.894C240.32 204.894 220.987 236.227 218.32 267.561C218.32 267.561 264.653 271.894 294.32 266.894C294.32 266.894 298.32 223.227 293.32 213.561C288.32 203.895 240.32 204.894 240.32 204.894Z" fill="#A4DAE0"/>
<path d="M230.004 264.753C231.223 264.395 233.64 257.278 234.356 255.763C236.169 251.928 238.034 248.12 239.852 244.288C241.353 241.124 242.805 237.945 244.178 234.735C228.479 236.485 210.172 240.607 196.32 249.886C196.32 249.886 185.525 234.698 198.698 268.368C198.698 268.368 217.288 267.234 227.313 267.099C227.766 266.049 228.632 265.156 230.004 264.753Z" fill="#A4DAE0"/>
<path d="M286.236 264.753C285.017 264.395 282.6 257.278 281.884 255.763C280.071 251.928 278.206 248.12 276.388 244.288C274.887 241.124 273.436 237.945 272.062 234.735C287.76 236.485 306.068 240.607 319.921 249.886C319.921 249.886 330.715 234.698 317.542 268.368C317.542 268.368 298.952 267.234 288.927 267.099C288.474 266.049 287.608 265.156 286.236 264.753Z" fill="#A4DAE0"/>
<path d="M294.933 225.21C294.36 227.687 293.739 230.15 293.119 232.614L292.193 236.31C291.912 237.549 291.482 238.75 291.116 239.968C290.363 242.4 289.59 244.829 288.806 247.256C288.414 248.472 288.04 249.687 287.593 250.887C287.152 252.088 286.683 253.279 286.193 254.463C285.201 256.826 284.152 259.176 282.855 261.427C282.205 262.552 281.507 263.659 280.694 264.717C279.867 265.762 278.977 266.808 277.673 267.586C277.026 267.969 276.203 268.248 275.321 268.218C274.408 268.199 273.626 267.731 273.015 267.248C272.433 266.729 271.977 266.148 271.614 265.552C271.437 265.231 271.26 264.999 271.086 264.604C270.958 264.309 270.824 264.037 270.701 263.722C270.174 262.313 269.997 261.027 269.886 259.682C269.785 258.353 269.832 257.038 269.928 255.743L271.354 256.578C270.827 256.92 270.233 257.36 269.622 257.746C269.002 258.137 268.377 258.534 267.517 258.791C267.407 258.821 267.31 258.858 267.19 258.88C267.054 258.894 266.916 258.903 266.778 258.909C266.627 258.905 266.533 258.935 266.339 258.892C266.227 258.864 266.23 258.884 266.012 258.812C265.67 258.713 265.325 258.489 265.095 258.095C264.867 257.681 264.905 257.309 264.944 257.031C265.054 256.484 265.265 256.132 265.467 255.787C265.675 255.45 265.896 255.146 266.124 254.857C267.034 253.706 268.04 252.708 268.986 251.707L269.326 251.338C269.417 251.241 269.565 251.048 269.562 251.062C269.711 250.763 269.931 250.43 270.021 250.159C270.271 249.625 270.469 248.947 270.642 248.306C270.81 247.648 270.954 246.973 271.105 246.286C271.247 245.616 271.43 244.878 271.627 244.222L272.824 240.208C273.626 237.533 274.415 234.854 275.266 232.192C274.721 234.935 274.113 237.661 273.519 240.39L272.621 244.483C272.455 245.174 272.337 245.8 272.227 246.503C272.116 247.186 272.007 247.885 271.868 248.588C271.712 249.301 271.57 249.983 271.267 250.733C271.133 251.125 270.966 251.382 270.816 251.713C270.631 252.026 270.548 252.096 270.417 252.269L270.064 252.684C269.134 253.747 268.196 254.761 267.417 255.834C267.042 256.34 266.669 256.979 266.617 257.31C266.611 257.37 266.627 257.373 266.587 257.264C266.536 257.166 266.49 257.165 266.486 257.157L266.478 257.162L266.538 257.173L266.667 257.196C266.644 257.2 266.726 257.177 266.749 257.175C266.785 257.169 266.822 257.168 266.86 257.171C266.909 257.161 266.976 257.13 267.033 257.113C267.511 256.965 268.092 256.616 268.633 256.245C269.193 255.872 269.711 255.466 270.343 255.031L271.872 253.98L271.769 255.865C271.701 257.103 271.708 258.332 271.8 259.535C271.893 260.715 272.117 261.962 272.485 262.935C272.593 263.21 272.742 263.509 272.868 263.794C272.944 263.983 273.145 264.269 273.275 264.502C273.572 264.988 273.922 265.403 274.287 265.73C275.039 266.354 275.76 266.367 276.683 265.861C277.578 265.349 278.407 264.451 279.146 263.516C279.888 262.566 280.558 261.528 281.185 260.46C282.432 258.316 283.546 256.062 284.563 253.764C285.073 252.615 285.556 251.452 286.027 250.284C286.513 249.123 286.934 247.926 287.368 246.741C288.23 244.365 289.103 241.992 289.997 239.621C290.434 238.432 290.907 237.257 291.284 236.042L292.487 232.427C293.288 230.018 294.086 227.607 294.933 225.21Z" fill="#77C2C6"/>
<path d="M234.758 223.876C235.604 226.273 236.403 228.685 237.203 231.095L238.406 234.71C238.783 235.925 239.256 237.1 239.693 238.289C240.586 240.66 241.46 243.033 242.322 245.409C242.756 246.594 243.176 247.791 243.663 248.952C244.135 250.12 244.617 251.283 245.127 252.432C246.144 254.73 247.258 256.984 248.505 259.128C249.132 260.196 249.802 261.234 250.544 262.183C251.283 263.118 252.112 264.016 253.007 264.528C253.929 265.034 254.65 265.021 255.403 264.397C255.767 264.07 256.118 263.655 256.415 263.169C256.545 262.935 256.746 262.65 256.822 262.461C256.948 262.175 257.098 261.877 257.205 261.602C257.573 260.629 257.797 259.381 257.89 258.202C257.982 257 257.989 255.77 257.921 254.532L257.818 252.647L259.347 253.698C259.979 254.132 260.497 254.539 261.057 254.912C261.599 255.284 262.18 255.632 262.657 255.78C262.714 255.798 262.781 255.828 262.831 255.838C262.869 255.835 262.905 255.836 262.942 255.842C262.965 255.843 263.047 255.867 263.024 255.863L263.153 255.84L263.213 255.829L263.205 255.824C263.2 255.831 263.155 255.832 263.104 255.93C263.064 256.039 263.081 256.036 263.074 255.976C263.022 255.645 262.648 255.006 262.274 254.5C261.494 253.427 260.557 252.412 259.627 251.349L259.274 250.934C259.143 250.762 259.06 250.691 258.875 250.379C258.726 250.048 258.558 249.792 258.424 249.399C258.121 248.649 257.979 247.966 257.823 247.254C257.684 246.551 257.575 245.853 257.464 245.169C257.354 244.467 257.236 243.841 257.07 243.149L256.172 239.056C255.578 236.326 254.97 233.6 254.425 230.858C255.276 233.52 256.065 236.199 256.867 238.874L258.064 242.888C258.262 243.544 258.445 244.282 258.586 244.952C258.737 245.639 258.881 246.314 259.049 246.972C259.222 247.613 259.42 248.292 259.67 248.825C259.76 249.096 259.981 249.429 260.129 249.728C260.126 249.714 260.274 249.907 260.365 250.004L260.705 250.373C261.651 251.374 262.658 252.372 263.567 253.523C263.795 253.812 264.016 254.116 264.224 254.453C264.427 254.797 264.638 255.149 264.747 255.697C264.786 255.975 264.824 256.347 264.596 256.761C264.367 257.155 264.021 257.378 263.679 257.477C263.461 257.549 263.464 257.529 263.352 257.558C263.159 257.601 263.064 257.572 262.913 257.575C262.775 257.57 262.638 257.56 262.501 257.546C262.38 257.524 262.283 257.487 262.173 257.457C261.313 257.2 260.688 256.803 260.068 256.412C259.457 256.025 258.863 255.586 258.336 255.244L259.762 254.409C259.858 255.703 259.905 257.019 259.804 258.348C259.693 259.693 259.516 260.979 258.989 262.388C258.866 262.703 258.732 262.975 258.604 263.27C258.431 263.665 258.254 263.897 258.076 264.218C257.713 264.815 257.258 265.395 256.675 265.914C256.064 266.397 255.282 266.865 254.369 266.884C253.486 266.914 252.664 266.634 252.017 266.252C250.713 265.474 249.822 264.428 248.996 263.383C248.184 262.325 247.485 261.218 246.835 260.093C245.538 257.841 244.489 255.491 243.497 253.128C243.007 251.944 242.538 250.753 242.097 249.552C241.65 248.352 241.276 247.137 240.884 245.921C240.099 243.494 239.327 241.065 238.574 238.633C238.208 237.415 237.777 236.214 237.496 234.975L236.57 231.279C235.952 228.817 235.331 226.353 234.758 223.876Z" fill="#77C2C6"/>
<path d="M253.036 118.37C253.036 118.37 240.529 94.2931 230.872 94.8291C221.214 95.3641 234.082 120.768 241.519 125.613C248.956 130.458 253.036 118.37 253.036 118.37Z" fill="#A4DAE0"/>
<path d="M249.871 112.846C251.829 116.039 253.04 118.37 253.04 118.37C253.04 118.37 248.959 130.458 241.522 125.613C239.585 124.351 237.282 121.689 235.102 118.441C239.9 116.177 244.755 114.015 249.871 112.846Z" fill="#77C2C6"/>
<path d="M255.943 117.843C255.943 117.843 254.239 90.7646 262.789 86.2426C271.339 81.7206 273.417 110.121 269.546 118.108C265.675 126.095 255.943 117.843 255.943 117.843Z" fill="#A4DAE0"/>
<path d="M255.808 111.476C255.778 115.222 255.942 117.843 255.942 117.843C255.942 117.843 265.673 126.094 269.545 118.107C270.553 116.027 271.154 112.558 271.346 108.651C266.068 109.186 260.794 109.838 255.808 111.476Z" fill="#77C2C6"/>
<path d="M277.659 112.658C277.659 112.658 321.208 115.653 331.653 168.226C340.806 214.295 324.898 227.996 281.791 219.786C281.791 219.786 260.82 222.26 249.373 215.546C249.373 215.546 225.461 219.304 211.004 206.757C199.824 197.055 206.255 155.128 229.519 130.772C252.783 106.416 277.659 112.658 277.659 112.658Z" fill="#A4DAE0"/>
<path d="M283.559 136.948C283.559 136.948 316.995 143.288 320.511 180.75C324.112 219.12 294.687 222.497 262.989 217.099C229.835 211.454 224.256 185.52 233.27 161.562C242.285 137.604 273.605 133.045 283.559 136.948Z" fill="#77C2C6"/>
<path d="M280.27 135.315C280.27 135.315 313.706 141.655 317.222 179.117C320.823 217.487 291.398 220.864 259.7 215.467C226.546 209.822 220.967 183.888 229.981 159.93C238.995 135.971 270.315 131.412 280.27 135.315Z" fill="#FEE9E8"/>
<path d="M299.226 144.709C299.226 144.709 305.217 156.289 287.126 167.722L287.681 154.05C287.681 154.05 282.786 171.349 267.464 178.01C267.464 178.01 263.43 163.258 271.68 149.606C271.68 149.606 265.501 155.077 261.829 162.446C261.829 162.446 255.991 152.887 263.221 143.16C263.221 143.16 257.101 147.967 254.242 153.735C254.242 153.735 248.375 144.508 260.614 134.895C260.614 134.895 280.038 127.262 299.226 144.709Z" fill="#082E52"/>
<path d="M279.148 197.112C279.148 197.112 279.15 197.209 279.152 197.391C279.139 197.572 279.181 197.834 279.115 198.176C279.078 198.525 279 198.946 278.85 199.41C278.697 199.875 278.481 200.394 278.159 200.922C277.83 201.44 277.431 201.995 276.892 202.473C276.376 202.977 275.74 203.418 275.028 203.78C274.315 204.144 273.51 204.385 272.673 204.524C271.832 204.652 270.962 204.624 270.109 204.502C269.616 204.385 269.382 204.359 268.89 204.185C268.438 204.053 268.063 203.856 267.681 203.674C266.937 203.268 266.259 202.771 265.705 202.193C265.153 201.615 264.698 200.988 264.379 200.341C264.029 199.711 263.835 199.055 263.697 198.457C263.569 197.852 263.535 197.291 263.547 196.802C263.56 196.311 263.626 195.893 263.707 195.555C263.758 195.217 263.886 194.966 263.934 194.794C263.997 194.624 264.03 194.534 264.03 194.534C264.03 194.534 264.041 194.63 264.063 194.811C264.087 194.99 264.093 195.249 264.159 195.571C264.201 195.894 264.298 196.274 264.411 196.697C264.539 197.117 264.719 197.57 264.934 198.043C265.179 198.505 265.46 198.984 265.817 199.439C266.158 199.907 266.611 200.317 267.074 200.714C267.549 201.107 268.097 201.419 268.664 201.7C268.958 201.821 269.257 201.948 269.528 202.023C269.737 202.12 270.253 202.203 270.491 202.263C271.761 202.473 273.07 202.354 274.23 201.936C274.799 201.714 275.362 201.48 275.838 201.15C276.325 200.838 276.751 200.48 277.134 200.124C277.493 199.749 277.814 199.381 278.074 199.026C278.32 198.661 278.536 198.34 278.681 198.054C278.849 197.778 278.944 197.518 279.024 197.361C279.106 197.2 279.148 197.112 279.148 197.112Z" fill="#082E52"/>
<path d="M300.077 207.727C297.333 207.3 295.111 206.491 293.413 205.299C291.714 204.11 290.963 202.866 291.165 201.57C291.371 200.249 292.426 199.335 294.329 198.831C296.233 198.326 298.468 198.273 301.038 198.673C302.788 198.946 304.422 199.401 305.94 200.037C307.454 200.674 308.643 201.411 309.498 202.249C310.353 203.087 310.717 203.912 310.592 204.72C310.403 205.934 309.304 206.849 307.296 207.461C305.286 208.076 302.878 208.163 300.077 207.727Z" fill="#FF9285"/>
<path d="M242.28 199.674C239.536 199.246 237.314 198.438 235.616 197.246C233.918 196.057 233.166 194.813 233.368 193.517C233.574 192.196 234.629 191.283 236.533 190.778C238.437 190.273 240.672 190.22 243.242 190.62C244.992 190.893 246.626 191.348 248.144 191.984C249.658 192.621 250.847 193.358 251.702 194.196C252.557 195.034 252.921 195.859 252.795 196.667C252.606 197.881 251.507 198.796 249.499 199.408C247.489 200.024 245.081 200.111 242.28 199.674Z" fill="#FF9285"/>
<path d="M327.324 47.5063C327.324 47.5063 305.551 42.9523 295.032 61.1603C287.59 74.0433 288.717 89.4283 304.086 100.205C305.251 101.022 306.527 101.767 307.874 102.451C306.464 105.079 302.195 113.473 305.145 113.573C307.72 113.66 312.651 108.138 315.075 105.216C331.487 109.762 353.025 105.044 354.998 81.8613C357.464 52.8683 327.324 47.5063 327.324 47.5063Z" fill="white"/>
<path d="M323.997 77.8726C320.972 77.9686 310.949 76.6466 317.227 72.5756C321.91 69.5396 328.353 72.1866 331.354 76.2476C333.84 79.6106 331.899 83.2666 328.326 84.5316C325.415 85.5616 321.91 84.5856 319.01 83.9456C315.457 83.1616 311.277 81.7516 309.25 78.5016C306.267 73.7206 312.551 68.7936 316.153 66.9086C321.892 63.9046 329.151 63.9856 333.962 68.6276C338.011 72.5336 339.549 79.1426 338.674 84.6006C336.717 96.8066 320.261 93.4626 312.26 89.9606C299.722 84.4726 301.801 69.8406 310.669 61.6986C319.117 53.9416 332.721 58.3566 338.449 67.0786C339.091 68.0556 340.669 67.1446 340.022 66.1596C335.762 59.6736 328.624 55.8616 320.862 55.9216C311.84 55.9906 305.691 62.9576 302.618 70.7716C299.515 78.6616 302.292 86.1396 309.355 90.4996C316.012 94.6096 327.258 96.7756 334.566 93.4996C344.975 88.8346 340.78 72.0816 334.17 66.3536C326.541 59.7426 313.268 63.5576 308.135 71.5126C304.841 76.6176 308.097 81.3996 312.888 83.7926C318.903 86.7966 333.862 89.9056 334.303 79.4816C334.672 70.7666 321.814 67.4376 315.76 71.3626C314.201 72.3736 312.625 74.5716 313.557 76.4916C315.279 80.0386 320.767 79.7976 324 79.6946C325.169 79.6566 325.172 77.8356 323.997 77.8726Z" fill="#082E52"/>
<path d="M246.226 180.79C245.255 179.098 244.871 177.182 245.074 175.05C245.209 173.63 245.624 172.341 246.318 171.187C247.011 170.033 247.865 169.16 248.878 168.562C249.891 167.966 250.923 167.718 251.975 167.817C253.518 167.964 254.758 168.777 255.698 170.253C256.637 171.729 256.996 173.628 256.776 175.948C256.559 178.224 255.821 180.104 254.565 181.584C253.308 183.07 251.857 183.731 250.208 183.574C248.524 183.415 247.195 182.488 246.226 180.79Z" fill="#082E52"/>
<path d="M247.997 172.885C247.669 172.469 247.529 172.003 247.578 171.49C247.61 171.148 247.735 170.841 247.95 170.567C248.166 170.294 248.436 170.09 248.76 169.953C249.083 169.818 249.416 169.766 249.758 169.799C250.261 169.846 250.669 170.052 250.986 170.416C251.302 170.78 251.434 171.242 251.381 171.8C251.328 172.348 251.104 172.796 250.708 173.143C250.313 173.492 249.846 173.639 249.311 173.588C248.764 173.537 248.325 173.303 247.997 172.885Z" fill="white"/>
<path d="M288.226 187.79C287.255 186.098 286.871 184.182 287.074 182.05C287.209 180.63 287.625 179.342 288.318 178.187C289.011 177.033 289.865 176.16 290.877 175.562C291.89 174.966 292.923 174.718 293.974 174.817C295.517 174.964 296.758 175.777 297.697 177.253C298.636 178.729 298.996 180.628 298.775 182.948C298.558 185.224 297.82 187.104 296.564 188.584C295.308 190.069 293.856 190.731 292.207 190.573C290.524 190.414 289.196 189.487 288.226 187.79Z" fill="#082E52"/>
<path d="M289.997 179.885C289.669 179.469 289.529 179.003 289.578 178.49C289.61 178.148 289.735 177.841 289.95 177.567C290.166 177.294 290.436 177.09 290.76 176.953C291.083 176.817 291.416 176.765 291.758 176.799C292.26 176.846 292.669 177.052 292.986 177.416C293.302 177.78 293.434 178.242 293.381 178.8C293.328 179.348 293.104 179.796 292.708 180.143C292.313 180.492 291.847 180.639 291.311 180.588C290.765 180.537 290.326 180.302 289.997 179.885Z" fill="white"/>
<path d="M1579.84 224.084C1579.67 224.316 1579.48 224.539 1579.3 224.762C1578.54 223.681 1577.29 222.32 1575.78 222.24C1573.81 222.137 1574.79 226.454 1575.32 228.381C1566.93 234.374 1554.42 235.958 1554.42 235.958L1547.33 236.49C1547.33 236.49 1541.56 265.46 1554.42 263.472C1566.65 261.582 1587.15 250.352 1593.43 237.65C1599.71 224.948 1587.04 214.507 1579.84 224.084Z" fill="white"/>
<path opacity="0.3" d="M1547.26 236.873C1546.64 240.25 1542.42 265.327 1554.42 263.472C1559.86 262.631 1566.93 259.941 1573.66 256.098C1564.48 250.212 1555.51 244.017 1547.26 236.873Z" fill="#A4DAE0"/>
<path d="M1574.15 325.329C1595.52 300.551 1598.87 280.372 1589.95 272.358C1581.03 264.344 1551.02 261.356 1551.02 261.356C1551.04 261.251 1542.24 274.171 1542.24 274.171C1542.24 274.171 1547.33 288.161 1551.4 290.139C1549.56 295.799 1548.37 304.722 1546.32 309.121C1543.63 314.9 1550.04 317.985 1550.04 317.985C1587.6 341.485 1574.15 325.329 1574.15 325.329Z" fill="white"/>
<path opacity="0.3" d="M1562.68 298.633L1560.83 291.198L1548.99 287.856C1549.8 288.935 1550.62 289.759 1551.39 290.139C1549.56 295.799 1548.37 304.722 1546.32 309.121C1545.25 311.427 1545.63 313.296 1546.47 314.719C1557.73 308.385 1562.68 298.633 1562.68 298.633Z" fill="#A4DAE0"/>
<path d="M1552.14 238.51L1529.47 252.867C1529.41 252.77 1529.38 252.714 1529.38 252.714L1488.56 254.575C1488.56 254.575 1467.9 304.091 1474.73 336.055C1474.73 336.055 1454.23 344.863 1500.44 339.961C1500.44 339.961 1507.85 339.966 1508.35 333.518C1508.72 328.689 1515.51 310.918 1516.75 304.83C1545.78 305.446 1560.67 303.526 1573.07 295.26C1574.13 283.096 1552.14 238.51 1552.14 238.51Z" fill="white"/>
<path opacity="0.3" d="M1481.15 283.278C1489.83 275.389 1493.49 265.176 1495.26 254.27L1488.56 254.575C1488.56 254.575 1482.95 268.035 1478.54 285.447C1479.44 284.754 1480.31 284.039 1481.15 283.278Z" fill="#A4DAE0"/>
<path d="M1461.2 288.431C1461.33 288.174 1461.48 287.923 1461.63 287.673C1462.55 288.616 1464.01 289.755 1465.51 289.587C1467.47 289.369 1465.8 285.268 1464.96 283.453C1472.26 276.174 1484.35 272.572 1484.35 272.572L1503.16 268.587C1503.16 268.587 1492.23 241.368 1479.86 245.427C1468.11 249.284 1449.71 263.704 1445.58 277.26C1441.46 290.814 1455.65 299.052 1461.2 288.431Z" fill="white"/>
<path d="M1488.62 243.551L1486.42 242.418C1486.42 242.418 1482.78 218.411 1449.98 227.888C1449.98 227.888 1457.26 257.474 1488.62 243.551Z" fill="#7DC5C9"/>
<path d="M1488.39 243.133L1485.98 243.707C1485.98 243.707 1476.71 266.149 1447.13 249.115C1447.13 249.115 1461.26 222.123 1488.39 243.133Z" fill="#A4DAE0"/>
<path d="M1479.3 237.951C1479.3 237.951 1484.13 267.8 1519.12 266.238C1554.11 264.676 1557.51 234.338 1553.89 228.498C1550.27 222.657 1479.3 237.951 1479.3 237.951Z" fill="#A4DAE0"/>
<path d="M1553.89 228.498C1550.91 223.693 1502.37 233.189 1485.23 236.71C1490.22 245.175 1500.95 255.652 1523.37 254.668C1538.54 254.002 1548.13 248.541 1553.9 241.919C1555.58 235.923 1555.2 230.608 1553.89 228.498Z" fill="#7DC5C9"/>
<path d="M1457.16 187.906C1457.16 187.906 1413.63 184.168 1420.8 169.257C1427.97 154.346 1462.71 180.607 1462.71 180.607L1457.16 187.906Z" fill="white"/>
<path d="M1458.38 186.456C1458.38 186.456 1436.22 184.553 1439.87 176.961C1443.52 169.369 1461.21 182.74 1461.21 182.74L1458.38 186.456Z" fill="#FEE9E8"/>
<path d="M1467.82 169.688C1467.82 169.688 1447.43 131.047 1436.48 143.456C1425.54 155.866 1463.26 177.64 1463.26 177.64L1467.82 169.688Z" fill="white"/>
<path d="M1466.96 171.377C1466.96 171.377 1456.58 151.703 1451.01 158.021C1445.44 164.339 1464.64 175.425 1464.64 175.425L1466.96 171.377Z" fill="#FEE9E8"/>
<path d="M1498.05 148.802C1498.05 148.802 1552.93 132.849 1572.22 179.244C1591.51 225.639 1536.13 252.36 1501.65 248.172C1467.16 243.983 1452.84 221.318 1454.91 195.614C1457.85 159.285 1498.05 148.802 1498.05 148.802Z" fill="white"/>
<path d="M1513.59 187.757C1513.59 187.757 1513.71 187.945 1513.89 188.279C1513.93 188.362 1513.98 188.454 1514.04 188.555C1514.11 188.639 1514.18 188.73 1514.26 188.827C1514.4 189.02 1514.57 189.224 1514.8 189.416C1515 189.632 1515.27 189.803 1515.55 189.977C1515.67 190.078 1515.83 190.146 1515.99 190.204C1516.15 190.26 1516.3 190.355 1516.46 190.403C1516.81 190.484 1517.15 190.581 1517.51 190.582C1517.69 190.597 1517.87 190.625 1518.05 190.584L1518.32 190.551L1518.45 190.536L1518.52 190.529L1518.55 190.525L1518.57 190.523L1518.58 190.522H1518.58C1518.56 190.529 1518.65 190.506 1518.52 190.538C1518.91 190.411 1519.4 190.322 1519.64 190.141C1519.93 190.015 1520.22 189.793 1520.5 189.584C1520.63 189.475 1520.73 189.33 1520.85 189.216C1520.98 189.099 1521.1 188.978 1521.17 188.834C1521.36 188.565 1521.54 188.304 1521.64 188.027C1521.78 187.763 1521.86 187.5 1521.91 187.259C1521.99 187.019 1522.04 186.803 1522.04 186.62C1522.08 186.255 1522.11 186.029 1522.11 186.029C1522.11 186.029 1522.18 186.227 1522.29 186.603C1522.32 186.699 1522.35 186.804 1522.38 186.92C1522.39 187.038 1522.4 187.166 1522.4 187.303C1522.43 187.581 1522.44 187.902 1522.35 188.239C1522.31 188.409 1522.29 188.595 1522.23 188.776C1522.16 188.951 1522.08 189.132 1522 189.319C1521.85 189.702 1521.57 190.041 1521.29 190.392C1520.96 190.694 1520.64 191.046 1520.16 191.267C1519.69 191.561 1519.32 191.615 1518.9 191.767L1518.83 191.784L1518.83 191.785L1518.82 191.786L1518.79 191.788L1518.75 191.792L1518.66 191.8L1518.48 191.816L1518.11 191.846C1517.87 191.883 1517.63 191.846 1517.39 191.818C1516.91 191.801 1516.47 191.604 1516.04 191.454C1515.65 191.24 1515.26 191.037 1514.97 190.744C1514.82 190.603 1514.68 190.467 1514.55 190.334C1514.42 190.19 1514.33 190.027 1514.23 189.885C1514.02 189.613 1513.9 189.303 1513.81 189.032C1513.76 188.901 1513.72 188.779 1513.68 188.666C1513.67 188.553 1513.65 188.448 1513.64 188.354C1513.6 187.977 1513.59 187.757 1513.59 187.757Z" fill="#082E52"/>
<path d="M1522.1 186.31C1522.1 186.31 1522.22 186.498 1522.4 186.832C1522.44 186.915 1522.49 187.007 1522.55 187.108C1522.61 187.192 1522.69 187.283 1522.77 187.38C1522.91 187.573 1523.07 187.777 1523.31 187.969C1523.51 188.185 1523.78 188.356 1524.05 188.531C1524.18 188.632 1524.34 188.7 1524.5 188.758C1524.66 188.814 1524.8 188.909 1524.97 188.957C1525.31 189.038 1525.65 189.135 1526.02 189.136C1526.37 189.204 1526.74 189.098 1527.1 189.076C1527.36 188.981 1527.94 188.868 1528.14 188.695C1528.44 188.569 1528.72 188.347 1529.01 188.138C1529.14 188.029 1529.24 187.884 1529.36 187.77C1529.49 187.653 1529.6 187.531 1529.68 187.388C1529.87 187.12 1530.05 186.858 1530.15 186.581C1530.29 186.317 1530.36 186.054 1530.42 185.813C1530.5 185.573 1530.55 185.357 1530.55 185.175C1530.59 184.81 1530.62 184.584 1530.62 184.584C1530.62 184.584 1530.69 184.782 1530.81 185.159C1530.83 185.254 1530.86 185.36 1530.89 185.475C1530.9 185.593 1530.91 185.721 1530.91 185.858C1530.94 186.136 1530.95 186.457 1530.86 186.794C1530.82 186.964 1530.8 187.15 1530.75 187.331C1530.67 187.506 1530.59 187.688 1530.51 187.874C1530.37 188.257 1530.08 188.596 1529.8 188.947C1529.47 189.249 1529.15 189.601 1528.67 189.822C1528.17 190.124 1527.89 190.154 1527.35 190.338C1526.87 190.371 1526.38 190.468 1525.9 190.374C1525.42 190.357 1524.98 190.16 1524.56 190.01C1524.16 189.796 1523.77 189.593 1523.48 189.3C1523.34 189.159 1523.2 189.023 1523.06 188.89C1522.93 188.746 1522.84 188.583 1522.74 188.441C1522.53 188.169 1522.41 187.859 1522.32 187.588C1522.28 187.457 1522.23 187.335 1522.19 187.222C1522.18 187.109 1522.17 187.004 1522.15 186.91C1522.11 186.529 1522.1 186.31 1522.1 186.31Z" fill="#082E52"/>
<path d="M1485.66 191.211C1485.66 191.211 1486.15 189.998 1487.47 188.555C1487.81 188.212 1488.15 187.805 1488.6 187.464C1488.82 187.285 1489.04 187.101 1489.27 186.913C1489.51 186.738 1489.77 186.58 1490.03 186.409C1490.54 186.063 1491.14 185.791 1491.74 185.509C1492.37 185.308 1492.99 185.026 1493.68 184.942L1494.69 184.78C1495.03 184.764 1495.37 184.775 1495.71 184.775C1496.38 184.73 1497.03 184.924 1497.65 185.035C1498.29 185.107 1498.83 185.446 1499.36 185.639C1499.91 185.822 1500.34 186.171 1500.75 186.437C1501.15 186.718 1501.54 186.942 1501.8 187.246C1502.09 187.52 1502.32 187.774 1502.52 187.977C1502.9 188.389 1503.1 188.634 1503.1 188.634C1503.1 188.634 1502.79 188.518 1502.28 188.299C1502.03 188.187 1501.73 188.058 1501.39 187.892C1501.07 187.706 1500.64 187.626 1500.23 187.461C1499.8 187.327 1499.36 187.119 1498.86 187.045C1498.62 186.994 1498.37 186.941 1498.12 186.887C1497.99 186.862 1497.86 186.83 1497.73 186.798L1497.34 186.768C1496.81 186.73 1496.27 186.652 1495.71 186.716C1495.44 186.728 1495.16 186.741 1494.88 186.754L1494.06 186.906C1493.49 186.954 1492.97 187.201 1492.42 187.321C1491.91 187.548 1491.36 187.686 1490.88 187.949C1490.38 188.19 1489.9 188.414 1489.46 188.679C1489.01 188.919 1488.6 189.197 1488.21 189.425C1487.84 189.684 1487.47 189.905 1487.17 190.123C1486.86 190.343 1486.59 190.535 1486.37 190.693C1485.92 191.011 1485.66 191.211 1485.66 191.211Z" fill="#082E52"/>
<path d="M1556.61 177.649C1556.61 177.649 1556.31 177.547 1555.78 177.4C1555.52 177.327 1555.2 177.238 1554.83 177.136C1554.47 177.035 1554.05 176.951 1553.62 176.834C1553.16 176.755 1552.69 176.63 1552.18 176.558C1551.68 176.458 1551.15 176.413 1550.6 176.353C1550.06 176.269 1549.5 176.326 1548.94 176.288C1548.38 176.361 1547.8 176.307 1547.26 176.453L1546.43 176.591C1546.16 176.674 1545.9 176.756 1545.63 176.838C1545.09 176.966 1544.61 177.223 1544.12 177.439L1543.76 177.602C1543.65 177.676 1543.54 177.749 1543.43 177.815C1543.21 177.953 1542.99 178.087 1542.78 178.218C1542.34 178.458 1542 178.801 1541.64 179.073C1541.31 179.368 1540.93 179.589 1540.69 179.874C1540.44 180.143 1540.19 180.368 1540 180.559C1539.59 180.937 1539.34 181.151 1539.34 181.151C1539.34 181.151 1539.45 180.854 1539.67 180.336C1539.78 180.079 1539.91 179.761 1540.09 179.406C1540.23 179.03 1540.52 178.689 1540.8 178.287C1541.1 177.896 1541.38 177.423 1541.83 177.066C1542.27 176.703 1542.66 176.201 1543.24 175.917C1543.79 175.601 1544.33 175.198 1544.98 175.01C1545.3 174.896 1545.62 174.768 1545.94 174.668L1546.95 174.477C1547.62 174.323 1548.3 174.377 1548.96 174.35C1549.62 174.413 1550.27 174.466 1550.87 174.617C1551.18 174.689 1551.47 174.749 1551.76 174.832C1552.04 174.931 1552.31 175.028 1552.58 175.123C1553.11 175.291 1553.58 175.556 1554.02 175.763C1555.74 176.675 1556.61 177.649 1556.61 177.649Z" fill="#082E52"/>
<path d="M1484.07 205.759C1482.05 205.184 1480.94 204.288 1480.73 203.078C1480.58 202.272 1480.93 201.441 1481.77 200.587C1482.61 199.733 1483.79 198.975 1485.29 198.311C1486.8 197.647 1488.42 197.163 1490.17 196.859C1492.73 196.413 1494.97 196.426 1496.88 196.896C1498.79 197.366 1499.86 198.261 1500.09 199.578C1500.32 200.87 1499.59 202.128 1497.91 203.347C1496.23 204.57 1494.03 205.418 1491.29 205.895C1488.5 206.381 1486.09 206.337 1484.07 205.759Z" fill="#FEE9E8"/>
<path d="M1552.33 190.097C1550.29 189.604 1549.14 188.755 1548.88 187.554C1548.71 186.754 1549.02 185.91 1549.83 185.023C1550.63 184.136 1551.78 183.331 1553.25 182.606C1554.73 181.882 1556.33 181.331 1558.06 180.957C1560.61 180.407 1562.84 180.329 1564.77 180.721C1566.7 181.113 1567.81 181.963 1568.09 183.27C1568.37 184.552 1567.69 185.838 1566.06 187.125C1564.44 188.415 1562.27 189.352 1559.55 189.94C1556.78 190.539 1554.37 190.593 1552.33 190.097Z" fill="#FEE9E8"/>
<path d="M662.507 76.5951C662.507 76.5951 651.708 85.5766 642.68 74.7169C633.651 63.8572 642.211 52.8182 653.293 49.3249C664.376 45.8315 668.26 55.0407 669.266 58.659C670.274 62.2774 670.628 71.6555 662.507 76.5951Z" fill="#FF9285"/>
<path opacity="0.5" d="M658 69.8973C658 69.8973 651.476 75.3239 646.022 68.7625C640.567 62.2022 645.738 55.5326 652.434 53.422C659.13 51.3113 661.476 56.8756 662.084 59.0612C662.692 61.2467 662.906 66.9127 658 69.8973Z" fill="#FEE9E8"/>
<path d="M574.43 85.7096C574.43 85.7096 560.758 82.4925 563.995 68.7461C567.233 54.9997 581.199 55.1903 590.661 61.9376C600.122 68.6849 595.105 77.3301 592.822 80.3112C590.538 83.2923 583.263 89.221 574.43 85.7096Z" fill="#FF9285"/>
<path opacity="0.5" d="M577.068 78.0764C577.068 78.0764 568.808 76.1329 570.764 67.8281C572.72 59.5233 581.158 59.6389 586.873 63.7148C592.588 67.7908 589.558 73.0142 588.178 74.8151C586.8 76.6161 582.404 80.1979 577.068 78.0764Z" fill="#FEE9E8"/>
<path d="M611.734 73.0807C611.734 73.0807 564.412 77.3097 556.2 29.3939C546.659 -26.276 600.026 -33.762 640.243 -22.2645C680.46 -10.7669 672.48 22.9031 668.185 35.1396C663.889 47.3762 646.008 74.7368 611.734 73.0807Z" fill="#FF9285"/>
<path d="M586.124 55.627C586.124 55.627 560.256 43.5098 560.974 16.2823C561.693 -10.9442 570.669 -20.882 618.024 -21.6178C665.378 -22.3536 664.089 4.88198 660.392 23.9906C656.694 43.1002 626.912 72.956 586.124 55.627Z" fill="#F46F64"/>
<path d="M587.563 55.5774C587.563 55.5774 563.354 43.7683 564.01 17.2671C564.666 -9.23317 573.059 -18.9002 617.362 -19.5894C661.666 -20.2777 660.476 6.23095 657.027 24.8279C653.579 43.4259 625.733 72.4688 587.563 55.5774Z" fill="#FEE9E8"/>
<path d="M639.584 13.8816C640.944 15.2739 641.662 16.946 641.739 18.8889C641.791 20.1835 641.503 21.3962 640.877 22.525C640.25 23.6538 639.397 24.5506 638.324 25.2226C637.248 25.8914 636.1 26.2516 634.88 26.3C633.089 26.3716 631.548 25.8044 630.256 24.6016C628.964 23.3988 628.275 21.7397 628.19 19.6255C628.108 17.5503 628.681 15.7643 629.905 14.2681C631.129 12.7669 632.699 11.9812 634.612 11.9049C636.564 11.826 638.224 12.4833 639.584 13.8816Z" fill="#082E52"/>
<path d="M638.707 21.2198C639.145 21.5502 639.372 21.9504 639.391 22.4184C639.403 22.73 639.305 23.0228 639.098 23.2967C638.89 23.5706 638.61 23.79 638.258 23.9548C637.906 24.1196 637.532 24.2096 637.135 24.2257C636.553 24.2494 636.053 24.1179 635.638 23.8323C635.222 23.5466 635.003 23.1497 634.983 22.6407C634.964 22.1417 635.156 21.7091 635.559 21.345C635.962 20.9798 636.475 20.7846 637.096 20.7603C637.732 20.7355 638.269 20.8873 638.707 21.2198Z" fill="white"/>
<path d="M588.262 14.6521C589.622 16.0444 590.341 17.7165 590.419 19.6594C590.471 20.954 590.183 22.1667 589.555 23.2955C588.929 24.4243 588.076 25.3211 587.003 25.993C585.927 26.6619 584.778 27.022 583.559 27.0705C581.767 27.142 580.226 26.5749 578.934 25.3721C577.642 24.1692 576.953 22.5102 576.869 20.396C576.786 18.3218 577.36 16.5347 578.584 15.0386C579.808 13.5374 581.377 12.7516 583.291 12.6754C585.243 12.5965 586.902 13.2538 588.262 14.6521Z" fill="#082E52"/>
<path d="M587.387 21.9903C587.824 22.3208 588.052 22.7209 588.07 23.1889C588.082 23.5005 587.985 23.7933 587.777 24.0672C587.57 24.3411 587.29 24.5605 586.939 24.7253C586.587 24.8901 586.213 24.9801 585.816 24.9963C585.234 25.02 584.734 24.8885 584.319 24.6028C583.902 24.3171 583.684 23.9202 583.664 23.4112C583.644 22.9122 583.836 22.4797 584.239 22.1155C584.642 21.7494 585.156 21.5551 585.778 21.5309C586.413 21.506 586.95 21.6578 587.387 21.9903Z" fill="white"/>
<path d="M614.693 19.5248C614.72 15.2902 611.806 11.8363 608.183 11.8129C604.559 11.7884 601.599 15.2022 601.571 19.4368" fill="#FF9285"/>
<g opacity="0.5">
<path d="M647.767 1.94248C649.692 2.78017 650.679 3.81426 650.727 5.04169C650.76 5.85933 650.303 6.63687 649.358 7.37133C648.413 8.10679 647.148 8.70202 645.57 9.16223C643.989 9.62033 642.314 9.88603 640.545 9.95631C637.946 10.0597 635.732 9.75122 633.898 9.03178C632.064 8.31234 631.121 7.28482 631.068 5.94914C631.015 4.63851 631.904 3.48883 633.728 2.50187C635.551 1.51191 637.85 0.962791 640.625 0.852589C643.46 0.739449 645.842 1.10179 647.767 1.94248Z" fill="#FF9285"/>
<path d="M583.392 4.12021C585.317 4.9579 586.304 5.99199 586.352 7.21942C586.385 8.03705 585.928 8.8146 584.983 9.54906C584.038 10.2835 582.772 10.8797 581.195 11.34C579.614 11.7981 577.939 12.0638 576.17 12.134C573.571 12.2374 571.357 11.929 569.523 11.2095C567.689 10.4901 566.746 9.46154 566.693 8.12587C566.64 6.81524 567.53 5.66559 569.353 4.67859C571.176 3.68863 573.475 3.13952 576.25 3.02932C579.084 2.91814 581.467 3.27952 583.392 4.12021Z" fill="#FF9285"/>
</g>
<path d="M619.121 20.0069L597.12 20.0071" stroke="#082E52" stroke-miterlimit="10"/>
</g>
<defs>
<clipPath id="clip0_1132_292">
<rect width="1781" height="291" fill="white"/>
</clipPath>
</defs>
</svg>
