<svg width="80" height="80" viewBox="0 0 80 80" fill="none" xmlns="http://www.w3.org/2000/svg">
<circle cx="40" cy="40" r="40" fill="#082E52"/>
<path d="M40 19C28.4031 19 19 28.4031 19 40C19 51.5969 28.4031 61 40 61C51.5969 61 61 51.5969 61 40C61 28.4031 51.5969 19 40 19ZM40 57.4375C30.3719 57.4375 22.5625 49.6281 22.5625 40C22.5625 30.3719 30.3719 22.5625 40 22.5625C49.6281 22.5625 57.4375 30.3719 57.4375 40C57.4375 49.6281 49.6281 57.4375 40 57.4375ZM42.2359 38.9125L41.0453 38.6359V32.3406C42.8266 32.5844 43.9281 33.7 44.1156 35.0687C44.1391 35.2562 44.2984 35.3922 44.4859 35.3922H46.5906C46.8109 35.3922 46.9844 35.2 46.9656 34.9797C46.6797 32.0594 44.275 30.1844 41.0641 29.8609V28.3281C41.0641 28.1219 40.8953 27.9531 40.6891 27.9531H39.3719C39.1656 27.9531 38.9969 28.1219 38.9969 28.3281V29.875C35.6781 30.1984 33.0812 32.0312 33.0812 35.4531C33.0812 38.6219 35.4156 40.15 37.8672 40.7359L39.025 41.0312V47.7203C36.9531 47.4438 35.7906 46.3375 35.5516 44.8469C35.5234 44.6688 35.3641 44.5375 35.1813 44.5375H33.0156C32.7953 44.5375 32.6219 44.725 32.6406 44.9453C32.8516 47.5234 34.8063 49.8953 38.9781 50.2V51.6719C38.9781 51.8781 39.1469 52.0469 39.3531 52.0469H40.6844C40.8906 52.0469 41.0594 51.8781 41.0594 51.6672L41.05 50.1813C44.7203 49.8578 47.3453 47.8938 47.3453 44.3688C47.3406 41.1156 45.2734 39.6625 42.2359 38.9125ZM39.0203 38.1531C38.7578 38.0781 38.5375 38.0078 38.3172 37.9188C36.7328 37.3469 35.9969 36.4234 35.9969 35.2328C35.9969 33.5312 37.2859 32.5609 39.0203 32.3406V38.1531ZM41.0453 47.7344V41.4672C41.1906 41.5094 41.3219 41.5422 41.4578 41.5703C43.675 42.2453 44.4203 43.1828 44.4203 44.6219C44.4203 46.4547 43.0422 47.5563 41.0453 47.7344Z" fill="white"/>
</svg>
