<svg width="80" height="80" viewBox="0 0 80 80" fill="none" xmlns="http://www.w3.org/2000/svg">
<circle cx="40" cy="40" r="40" fill="#082E52"/>
<path d="M42.7923 22.1668H49.6673C50.8829 22.1668 52.0487 22.6497 52.9082 23.5092C53.7678 24.3688 54.2507 25.5346 54.2507 26.7501V58.8335M17.584 58.8335H24.459M24.459 58.8335L39.9461 62.7041C40.2838 62.7883 40.6363 62.7945 40.9768 62.7222C41.3173 62.6498 41.6369 62.5009 41.9112 62.2866C42.1856 62.0724 42.4075 61.7984 42.5602 61.4856C42.7128 61.1728 42.7922 60.8293 42.7923 60.4812V23.4547C42.7919 22.7585 42.6328 22.0692 42.3272 21.4436C42.0216 20.818 41.5774 20.2702 41.0285 19.8419C40.4796 19.4136 39.8403 19.116 39.1592 18.9716C38.4781 18.8273 37.773 18.84 37.0975 19.0089L27.9309 21.3005C26.9393 21.5484 26.059 22.1206 25.43 22.9261C24.8009 23.7316 24.4591 24.7243 24.459 25.7464V58.8335ZM42.7923 58.8335H63.4173M35.9173 40.5001V40.523" stroke="white" stroke-width="3" stroke-linecap="round" stroke-linejoin="round"/>
</svg>
