<svg width="80" height="80" viewBox="0 0 80 80" fill="none" xmlns="http://www.w3.org/2000/svg">
<circle cx="40" cy="40" r="40" fill="#082E52"/>
<path d="M40.4994 18.417C52.696 18.417 62.5827 28.3037 62.5827 40.5003C62.5827 52.697 52.696 62.5837 40.4994 62.5837C36.9748 62.5885 33.5008 61.7463 30.3697 60.128L21.9207 62.4843C21.4493 62.6158 20.9514 62.6197 20.478 62.4955C20.0046 62.3713 19.5728 62.1234 19.2267 61.7774C18.8807 61.4313 18.6328 60.9995 18.5086 60.5261C18.3844 60.0527 18.3883 59.5548 18.5198 59.0835L20.8783 50.641C19.256 47.5072 18.4114 44.0291 18.416 40.5003C18.416 28.3037 28.3027 18.417 40.4994 18.417ZM40.4994 21.7295C35.521 21.7295 30.7466 23.7071 27.2264 27.2273C23.7062 30.7476 21.7285 35.522 21.7285 40.5003C21.7285 43.7466 22.5522 46.867 24.0981 49.6362L24.4293 50.2325L21.9737 59.0305L30.7783 56.5748L31.3745 56.906C33.8796 58.2988 36.6704 59.0994 39.5329 59.2464C42.3954 59.3935 45.2535 58.883 47.8881 57.7542C50.5227 56.6255 52.8638 54.9083 54.732 52.7345C56.6001 50.5607 57.9456 47.9879 58.6653 45.2135C59.3849 42.4391 59.4597 39.5367 58.8838 36.7289C58.3079 33.9211 57.0967 31.2825 55.343 29.0154C53.5893 26.7482 51.3397 24.9128 48.7667 23.6499C46.1937 22.387 43.3656 21.73 40.4994 21.7295ZM33.3223 42.7087H43.2554C43.675 42.7088 44.0789 42.8682 44.3856 43.1547C44.6922 43.4412 44.8787 43.8334 44.9073 44.252C44.9359 44.6707 44.8045 45.0846 44.5397 45.4101C44.2748 45.7356 43.8963 45.9485 43.4806 46.0057L43.2554 46.0212H33.3223C32.9027 46.021 32.4987 45.8616 32.1921 45.5751C31.8855 45.2887 31.699 44.8965 31.6704 44.4778C31.6418 44.0591 31.7732 43.6452 32.038 43.3197C32.3028 42.9942 32.6813 42.7813 33.097 42.7241L33.3223 42.7087ZM33.3223 34.9795H47.6875C48.1069 34.9802 48.5105 35.14 48.8167 35.4266C49.1229 35.7133 49.309 36.1055 49.3373 36.524C49.3656 36.9424 49.2341 37.3561 48.9692 37.6814C48.7044 38.0067 48.3261 38.2194 47.9105 38.2765L47.6875 38.292H33.3223C32.9027 38.2919 32.4987 38.1325 32.1921 37.846C31.8855 37.5595 31.699 37.1673 31.6704 36.7486C31.6418 36.33 31.7732 35.9161 32.038 35.5905C32.3028 35.265 32.6813 35.0522 33.097 34.995L33.3223 34.9795Z" fill="white"/>
</svg>
